<svg xmlns="http://www.w3.org/2000/svg" width="468.907" height="464">
  <defs>
    <clipPath id="a">
      <path d="M281.863 143.34a4 4 0 0 0-6.77-2.16L254.333 162l-16.34-31.11a4 4 0 0 0-7.08 0l-8.93 17-22.4-41.77a4 4 0 0 0-7.48 1.28L170.453 246l57.9 32.46a12 12 0 0 0 11.7 0l58.4-32.46z" fill="none"/>
    </clipPath>
    <linearGradient x1="195.353" y1="198.54" x2="187.353" y2="194.36" gradientUnits="userSpaceOnUse" id="b">
      <stop offset="0" stop-color="#a52714"/>
      <stop offset=".4" stop-color="#a52714" stop-opacity=".5"/>
      <stop offset=".8" stop-color="#a52714" stop-opacity="0"/>
    </linearGradient>
    <linearGradient x1="229.343" y1="186.91" x2="225.763" y2="183.33" gradientUnits="userSpaceOnUse" id="c">
      <stop offset="0" stop-color="#a52714" stop-opacity=".8"/>
      <stop offset=".5" stop-color="#a52714" stop-opacity=".21"/>
      <stop offset="1" stop-color="#a52714" stop-opacity="0"/>
    </linearGradient>
    <linearGradient x1="165.641" y1="136.281" x2="299.328" y2="269.968" gradientUnits="userSpaceOnUse" id="d">
      <stop offset="0" stop-color="#fff" stop-opacity=".1"/>
      <stop offset="1" stop-color="#fff" stop-opacity="0"/>
    </linearGradient>
  </defs>
  <g fill="none">
    <path d="M0 0h468.907v464H0z"/>
    <g clip-path="url(#a)">
      <path d="M170.453 246l21.66-138.61a4 4 0 0 1 7.48-1.27l22.4 41.78 8.93-17a4 4 0 0 1 7.08 0l60.45 115.1z" fill="#ffa000"/>
      <path d="M244.453 105l-106-9v192l32-42z" fill="url(#b)" opacity=".12"/>
      <path d="M245.283 192.01l-23.3-44.12-51.53 98.11z" fill="#f57c00"/>
      <path d="M138.453 96h192v192h-192z" fill="url(#c)" opacity=".2"/>
      <path d="M298.453 246l-16.59-102.66a4 4 0 0 0-6.77-2.16L170.453 246l57.9 32.47a12 12 0 0 0 11.7 0z" fill="#ffca28"/>
      <path d="M281.863 143.34a4 4 0 0 0-6.77-2.16L254.333 162l-16.34-31.11a4 4 0 0 0-7.08 0l-8.93 17-22.4-41.77a4 4 0 0 0-7.48 1.28L170.453 246h-.08l.07.08.57.28 83.27-83.36 20.78-20.8a4 4 0 0 1 6.78 2.16l16.45 101.74.16-.1zm-111.22 102.47l21.47-137.42a4 4 0 0 1 7.48-1.28l22.4 41.78 8.93-17a4 4 0 0 1 7.08 0l16 30.43z" fill-opacity=".2" fill="#fff"/>
      <path d="M240.053 277.49a12 12 0 0 1-11.7 0l-57.76-32.4-.14.91 57.9 32.46a12 12 0 0 0 11.7 0l58.4-32.46-.15-.92z" fill="#a52714" opacity=".2"/>
      <path d="M281.863 143.34a4 4 0 0 0-6.77-2.16L254.333 162l-16.34-31.11a4 4 0 0 0-7.08 0l-8.93 17-22.4-41.77a4 4 0 0 0-7.48 1.28L170.453 246l57.9 32.46a12 12 0 0 0 11.7 0l58.4-32.46z" fill="url(#d)"/>
    </g>
    <circle cx="282.453" cy="240" r="40" fill="#fff"/>
    <path d="M282.453 242l-18 8v-8l18-8 18 8v7-1.5 2.5zm0-22l18 8v8l-18-8-18 8v-8zm6.75 29l9 4-15.75 7v-8z" fill-opacity=".54" fill="#000" fill-rule="evenodd"/>
    <path d="M111.87 352.683c-4.493 0-8.262-1.522-11.307-4.566-3.042-3.043-4.563-6.84-4.563-11.39 0-4.551 1.521-8.35 4.563-11.394 3.045-3.044 6.814-4.566 11.307-4.566 4.609 0 8.35 1.664 11.223 4.993l-2.733 2.647c-2.076-2.59-4.906-3.884-8.49-3.884-3.327 0-6.136 1.124-8.427 3.37-2.289 2.247-3.433 5.191-3.433 8.834 0 3.64 1.144 6.583 3.433 8.83 2.291 2.246 5.1 3.37 8.427 3.37 3.669 0 6.798-1.48 9.387-4.437l2.73 2.73c-1.394 1.68-3.143 3.01-5.247 3.99-2.104.982-4.394 1.473-6.87 1.473zm19.117-31.233V352h-3.927v-30.55zm6.186 12.14c2.018-2.12 4.591-3.18 7.72-3.18 3.13 0 5.704 1.06 7.724 3.18 2.02 2.118 3.03 4.77 3.03 7.957 0 3.186-1.01 5.839-3.03 7.956-2.02 2.12-4.595 3.18-7.724 3.18-3.129 0-5.702-1.06-7.72-3.18-2.02-2.117-3.03-4.77-3.03-7.956 0-3.187 1.01-5.84 3.03-7.957zm2.92 13.44c1.351 1.38 2.951 2.07 4.8 2.07 1.85 0 3.45-.69 4.8-2.07 1.351-1.38 2.027-3.208 2.027-5.483 0-2.276-.676-4.104-2.027-5.484-1.35-1.38-2.95-2.07-4.8-2.07-1.849 0-3.449.69-4.8 2.07-1.35 1.38-2.026 3.208-2.026 5.484 0 2.275.675 4.103 2.026 5.483zm37.057-15.937V352h-3.753v-2.9h-.17c-.598.996-1.51 1.841-2.734 2.537a7.707 7.707 0 0 1-3.88 1.046c-2.617 0-4.602-.796-5.953-2.39-1.351-1.593-2.027-3.726-2.027-6.4v-12.8h3.927v12.16c0 3.898 1.72 5.847 5.16 5.847 1.622 0 2.946-.654 3.97-1.963 1.024-1.31 1.537-2.817 1.537-4.524v-11.52zm13.1 21.59c-2.702 0-5.034-1.066-6.997-3.2-1.964-2.133-2.946-4.779-2.946-7.936 0-3.158.982-5.804 2.946-7.937 1.963-2.133 4.295-3.2 6.997-3.2 1.593 0 3.022.341 4.287 1.023 1.266.685 2.212 1.538 2.836 2.56h.174l-.174-2.9v-9.643h3.927V352h-3.753v-2.9h-.174c-.624 1.022-1.57 1.876-2.836 2.56-1.265.682-2.694 1.023-4.287 1.023zm.64-3.583c1.849 0 3.42-.683 4.713-2.05 1.296-1.364 1.944-3.199 1.944-5.503 0-2.305-.648-4.14-1.944-5.504-1.293-1.366-2.864-2.05-4.713-2.05-1.82 0-3.384.69-4.693 2.07-1.31 1.38-1.964 3.208-1.964 5.484 0 2.275.655 4.103 1.964 5.483s2.873 2.07 4.693 2.07zm29.183-10.2V352h-3.926v-30.55h17.836v3.757h-13.91v10.026h12.544v3.667zm21.29-13.053c-.54.54-1.194.81-1.963.81a2.67 2.67 0 0 1-1.96-.81 2.675 2.675 0 0 1-.813-1.964c0-.769.27-1.423.813-1.963a2.67 2.67 0 0 1 1.96-.81c.769 0 1.423.27 1.963.81s.81 1.194.81 1.963a2.68 2.68 0 0 1-.81 1.964zm0 5.246V352h-3.923v-20.907zm8.62 9.474V352h-3.926v-20.907h3.756v3.414h.17c.398-1.138 1.216-2.077 2.454-2.817 1.237-.74 2.439-1.11 3.603-1.11 1.167 0 2.149.171 2.947.513l-1.494 3.67c-.513-.2-1.21-.3-2.093-.3-1.422 0-2.68.563-3.773 1.687-1.096 1.122-1.644 2.594-1.644 4.417zm19.754 12.116c-3.158 0-5.725-1.052-7.7-3.156-1.978-2.107-2.967-4.767-2.967-7.98 0-3.045.96-5.661 2.88-7.85 1.92-2.191 4.373-3.287 7.36-3.287 3.1 0 5.582 1.01 7.447 3.03 1.862 2.02 2.793 4.722 2.793 8.107l-.043.726h-16.51c.113 2.105.816 3.768 2.11 4.99 1.295 1.225 2.81 1.837 4.546 1.837 2.816 0 4.721-1.196 5.717-3.587l3.497 1.454c-.683 1.62-1.806 2.977-3.37 4.073-1.565 1.096-3.485 1.643-5.76 1.643zm-6.484-13.653h12.117c-.087-1.196-.634-2.333-1.643-3.413-1.01-1.083-2.51-1.624-4.5-1.624-1.451 0-2.71.456-3.777 1.367-1.067.911-1.799 2.134-2.197 3.67zm27.22 13.653c-2.333 0-4.26-.569-5.78-1.706-1.522-1.138-2.639-2.56-3.35-4.267l3.497-1.45c1.111 2.616 3.003 3.923 5.677 3.923 1.222 0 2.224-.27 3.006-.81.783-.54 1.174-1.25 1.174-2.133 0-1.364-.953-2.289-2.857-2.773l-4.227-1.024c-1.335-.342-2.6-.99-3.796-1.943-1.194-.951-1.79-2.238-1.79-3.86 0-1.849.817-3.349 2.453-4.5 1.636-1.153 3.577-1.73 5.823-1.73 1.85 0 3.5.42 4.95 1.26 1.45.838 2.487 2.039 3.114 3.603l-3.414 1.41c-.769-1.849-2.362-2.773-4.78-2.773-1.164 0-2.145.241-2.943.723-.796.485-1.193 1.14-1.193 1.964 0 1.195.924 2.006 2.773 2.433l4.137.98c1.964.456 3.415 1.238 4.353 2.347.938 1.109 1.407 2.36 1.407 3.756 0 1.876-.768 3.44-2.304 4.694-1.535 1.25-3.512 1.876-5.93 1.876zm20.054-.343c-2.191 0-3.863-.582-5.014-1.747-1.15-1.166-1.726-2.816-1.726-4.95v-10.966h-3.67v-3.584h3.67v-6.4h3.923v6.4h5.12v3.584h-5.12v10.666c0 2.276.939 3.414 2.817 3.414.71 0 1.309-.114 1.793-.34l1.363 3.37c-.853.369-1.905.553-3.156.553zm7.253-18.75c2.02-2.12 4.594-3.18 7.723-3.18 3.13 0 5.704 1.06 7.724 3.18 2.017 2.118 3.026 4.77 3.026 7.957 0 3.186-1.009 5.839-3.026 7.956-2.02 2.12-4.595 3.18-7.724 3.18-3.129 0-5.703-1.06-7.723-3.18-2.02-2.117-3.03-4.77-3.03-7.956 0-3.187 1.01-5.84 3.03-7.957zm2.923 13.44c1.351 1.38 2.951 2.07 4.8 2.07 1.85 0 3.45-.69 4.8-2.07 1.351-1.38 2.027-3.208 2.027-5.483 0-2.276-.676-4.104-2.027-5.484-1.35-1.38-2.95-2.07-4.8-2.07-1.849 0-3.449.69-4.8 2.07-1.35 1.38-2.026 3.208-2.026 5.484 0 2.275.675 4.103 2.026 5.483zm22.634-6.463V352h-3.924v-20.907h3.754v3.414h.17c.397-1.138 1.215-2.077 2.453-2.817 1.238-.74 2.44-1.11 3.607-1.11 1.166 0 2.147.171 2.943.513l-1.493 3.67c-.511-.2-1.208-.3-2.09-.3-1.423 0-2.681.563-3.777 1.687-1.096 1.122-1.643 2.594-1.643 4.417zm19.756 12.116c-3.157 0-5.725-1.052-7.703-3.156-1.976-2.107-2.963-4.767-2.963-7.98 0-3.045.96-5.661 2.88-7.85 1.92-2.191 4.373-3.287 7.36-3.287 3.1 0 5.58 1.01 7.443 3.03 1.864 2.02 2.797 4.722 2.797 8.107l-.044.726H356.35c.113 2.105.818 3.768 2.113 4.99 1.294 1.225 2.808 1.837 4.544 1.837 2.815 0 4.72-1.196 5.716-3.587l3.5 1.454c-.682 1.62-1.805 2.977-3.37 4.073-1.564 1.096-3.484 1.643-5.76 1.643zm-6.486-13.653h12.116c-.084-1.196-.632-2.333-1.643-3.413-1.009-1.083-2.509-1.624-4.5-1.624-1.451 0-2.71.456-3.777 1.367-1.066.911-1.799 2.134-2.196 3.67z" fill="#fff"/>
  </g>
</svg>
